<?xml version="1.0" standalone="no"?>
<!DOCTYPE svg PUBLIC "-//W3C//DTD SVG 20010904//EN"
 "http://www.w3.org/TR/2001/REC-SVG-20010904/DTD/svg10.dtd">
<svg version="1.0" xmlns="http://www.w3.org/2000/svg"
 width="391.000000pt" height="391.000000pt" viewBox="0 0 391.000000 391.000000"
 preserveAspectRatio="xMidYMid meet">
<metadata>
Created by potrace 1.14, written by Peter Selinger 2001-2017
</metadata>
<g transform="translate(0.000000,391.000000) scale(0.100000,-0.100000)"
fill="#000000" stroke="none">
<path d="M1460 3539 c-168 -10 -337 -26 -349 -33 -4 -3 -34 -8 -67 -11 -32 -4
-62 -9 -67 -12 -4 -2 -18 -6 -32 -9 -13 -2 -45 -14 -72 -25 -26 -11 -59 -23
-72 -25 -36 -7 -61 -23 -62 -39 -2 -50 -1 -93 2 -101 5 -10 4 -49 -5 -179 -4
-49 -8 -123 -11 -164 -2 -40 -6 -76 -9 -79 -3 -3 -1 -11 5 -18 14 -17 -29 -48
-47 -33 -35 28 -94 -63 -96 -147 -1 -55 12 -118 26 -126 6 -4 7 -8 2 -8 -20 0
51 -62 91 -80 24 -10 43 -23 44 -27 0 -4 2 -18 3 -30 2 -13 -1 -23 -6 -23 -5
0 -4 -9 2 -20 6 -11 7 -20 3 -20 -9 0 -9 -6 -14 -197 l-3 -133 -45 -17 c-66
-25 -123 -59 -160 -93 -17 -17 -31 -27 -31 -23 -1 17 -40 -67 -45 -98 -3 -18
-8 -36 -11 -41 -3 -4 -1 -8 5 -8 5 0 12 -9 16 -20 7 -22 128 -86 144 -75 6 3
11 1 11 -5 0 -7 6 -10 13 -7 6 2 22 1 34 -4 22 -8 22 -11 18 -151 -3 -79 -7
-213 -10 -298 -2 -85 -5 -155 -5 -155 -1 0 -2 -24 -3 -52 -1 -29 1 -53 6 -53
4 0 5 -6 0 -13 -4 -6 -8 -55 -8 -107 0 -106 -8 -124 -65 -153 -19 -10 -57 -37
-85 -60 -66 -55 -231 -221 -275 -276 -19 -24 -43 -52 -52 -63 -10 -10 -15 -18
-10 -18 4 0 2 -4 -4 -8 -6 -4 -26 -29 -45 -56 -19 -27 -46 -66 -62 -88 -15
-21 -27 -41 -27 -43 0 -3 873 -5 1940 -5 l1940 0 0 474 0 474 -37 6 c-21 3
-58 8 -83 11 -25 3 -49 10 -54 16 -14 13 -28 11 -20 -4 6 -9 4 -9 -7 -1 -8 6
-21 12 -29 12 -34 2 -93 12 -112 18 -16 5 -19 3 -12 -7 6 -11 5 -12 -7 -2 -8
7 -35 13 -59 14 -25 1 -50 6 -57 11 -6 5 -14 5 -17 0 -3 -5 -20 -7 -38 -4 -18
2 -54 5 -81 6 -33 1 -49 6 -51 16 -4 14 -2 265 4 465 l3 80 51 0 c28 -1 69 3
91 7 22 5 52 10 67 13 65 10 140 89 125 130 -4 8 -2 17 4 20 5 4 6 12 2 18 -4
7 -9 20 -10 31 -4 22 -43 66 -60 66 -7 0 -13 4 -13 9 0 14 -69 43 -83 35 -6
-4 -9 -4 -5 1 8 9 -36 35 -58 35 -8 0 -14 5 -14 11 0 5 -3 8 -8 6 -4 -3 -22 3
-41 12 -21 11 -30 21 -22 25 7 5 8 13 1 25 -5 10 -7 21 -4 24 3 3 8 43 10 89
5 136 9 187 14 191 3 2 38 20 79 41 88 45 90 46 125 120 41 88 31 185 -24 238
-25 24 -94 55 -139 63 l-38 6 3 82 c2 45 6 114 9 152 14 171 15 238 4 251 -6
7 -7 18 -3 25 24 40 -6 159 -41 159 -8 0 -15 3 -15 8 0 17 -48 36 -96 38 -29
1 -62 6 -75 10 -28 9 -1476 12 -1629 3z"/>
</g>
</svg>
