<?xml version="1.0" standalone="no"?>
<!DOCTYPE svg PUBLIC "-//W3C//DTD SVG 20010904//EN"
 "http://www.w3.org/TR/2001/REC-SVG-20010904/DTD/svg10.dtd">
<svg version="1.0" xmlns="http://www.w3.org/2000/svg"
 width="443.000000pt" height="443.000000pt" viewBox="0 0 443.000000 443.000000"
 preserveAspectRatio="xMidYMid meet">
<metadata>
Created by potrace 1.14, written by Peter Selinger 2001-2017
</metadata>
<g transform="translate(0.000000,443.000000) scale(0.100000,-0.100000)"
fill="#000000" stroke="none">
<path d="M3085 3672 c-1 -2 -81 -5 -176 -7 -96 -3 -253 -7 -349 -10 -96 -3
-260 -7 -365 -10 -199 -6 -452 -14 -520 -18 -22 -2 -46 1 -52 6 -8 6 -13 6
-13 -1 0 -15 -67 -29 -173 -37 -28 -3 -81 -11 -117 -19 -35 -8 -68 -13 -71
-10 -9 5 -152 -47 -160 -59 -3 -5 -9 -8 -13 -7 -4 1 -17 -1 -29 -5 -12 -4 -26
-7 -30 -6 -20 3 -38 -31 -37 -71 4 -162 5 -284 1 -292 -2 -5 -5 -57 -7 -115
-2 -113 -7 -136 -30 -145 -9 -3 -12 -1 -9 4 4 7 -2 9 -17 6 -37 -7 -58 -17
-53 -26 3 -5 1 -11 -4 -14 -5 -4 -13 -25 -17 -49 -11 -60 -11 -61 -1 -74 6 -9
6 -13 -2 -13 -7 0 -8 -8 -1 -24 5 -13 6 -27 3 -30 -4 -3 -1 -6 5 -6 6 0 9 -6
6 -13 -6 -16 55 -96 74 -96 6 -1 27 -9 45 -19 l34 -18 -3 -81 c-1 -45 -5 -87
-8 -92 -4 -5 -2 -12 3 -16 6 -3 7 -16 3 -28 -9 -27 -9 -48 1 -64 5 -7 4 -13
-2 -13 -10 0 -9 -19 2 -37 4 -7 3 -22 -3 -34 -8 -14 -9 -24 -2 -31 12 -12 5
-38 -10 -38 -6 0 -43 -16 -82 -36 -71 -35 -158 -106 -164 -134 -2 -8 -7 -17
-11 -20 -9 -7 -7 -90 4 -113 11 -26 123 -74 190 -83 31 -4 42 -17 41 -49 -1
-19 -5 -35 -11 -35 -7 0 -7 -3 0 -8 12 -9 14 -92 2 -92 -4 0 -5 -5 -1 -12 11
-17 11 -78 1 -78 -4 0 -5 -5 -1 -12 10 -16 11 -178 1 -178 -4 0 -4 -8 0 -17
10 -22 10 -54 0 -71 -5 -6 -4 -12 2 -12 6 0 6 -11 1 -30 -5 -16 -6 -30 -2 -30
4 0 7 -16 7 -35 0 -19 -4 -35 -9 -35 -5 0 -4 -6 1 -12 11 -16 11 -108 0 -125
-5 -7 -4 -13 1 -13 10 0 9 -54 -2 -86 -4 -12 -31 -38 -60 -57 -60 -40 -241
-214 -302 -291 -21 -28 -49 -60 -60 -73 -12 -13 -34 -42 -50 -65 -16 -24 -31
-45 -34 -48 -11 -10 -37 -55 -38 -64 0 -5 -4 -12 -9 -15 -9 -7 -83 -118 -83
-126 0 -3 925 -5 2055 -5 l2055 0 0 533 c0 420 -3 534 -12 535 -7 0 -24 3 -38
7 -14 3 -45 7 -70 9 -25 2 -52 7 -60 10 -8 3 -26 8 -40 10 -14 3 -25 5 -25 6
0 2 -28 7 -85 15 -69 9 -74 10 -85 16 -5 3 -31 5 -57 4 -27 0 -48 2 -48 6 0 4
-15 7 -32 7 -18 0 -78 4 -133 7 -55 4 -121 7 -147 8 -25 1 -49 5 -52 8 -11 11
-13 54 -4 67 6 6 7 12 2 12 -5 0 -9 104 -9 230 0 265 -14 235 113 244 41 3 94
15 118 26 46 20 104 60 88 60 -5 0 -3 4 5 9 16 10 17 94 2 133 -5 14 -24 37
-43 52 -18 14 -39 31 -45 37 -7 5 -13 7 -13 3 0 -3 -6 -1 -13 5 -8 6 -17 8
-20 4 -4 -3 -7 -2 -7 4 0 10 -46 28 -62 25 -5 -1 -8 3 -8 8 0 5 -3 9 -7 8 -5
-1 -27 4 -50 12 l-42 13 2 158 c1 88 5 159 9 159 3 0 4 10 0 22 -3 12 -1 19 5
15 5 -3 26 5 46 18 20 14 42 25 50 25 20 0 87 65 87 84 0 10 7 31 16 49 37 71
19 168 -43 223 -36 32 -53 39 -128 52 l-40 7 0 135 c0 74 2 140 5 145 7 14 8
205 1 205 -3 0 -6 16 -6 35 0 19 3 35 6 35 4 0 2 18 -3 40 -6 22 -14 40 -19
40 -5 0 -9 6 -9 13 0 21 -91 65 -135 64 -22 0 -56 4 -75 9 -33 7 -228 13 -235
6z"/>
</g>
</svg>
